<svg id="accesories_ic" xmlns="http://www.w3.org/2000/svg" width="80.992" height="96.316" viewBox="0 0 80.992 96.316">
  <g id="Group_888" data-name="Group 888" transform="translate(23.72 48.844)">
    <path id="Path_367" data-name="Path 367" d="M331.138,324.457a16.661,16.661,0,0,0-13.536,0,16.792,16.792,0,1,0,13.536,0Zm-6.768,25.731a10.391,10.391,0,1,1,10.407-10.375A10.4,10.4,0,0,1,324.37,350.188Z" transform="translate(-307.61 -323.02)"/>
  </g>
  <g id="Group_890" data-name="Group 890" transform="translate(0)">
    <path id="Path_369" data-name="Path 369" d="M371.371,307.72h-61.39a9.786,9.786,0,0,0-.255,19.57v12.067a18.583,18.583,0,0,0,7.151,14.653,30.7,30.7,0,1,0,47.6,0,18.583,18.583,0,0,0,7.151-14.653V327.29a9.786,9.786,0,0,0-.256-19.57Zm-6.385,65.637a24.31,24.31,0,0,1-48.621,0,24,24,0,0,1,6.289-16.25,17.142,17.142,0,0,1,2.682-2.586,22.819,22.819,0,0,1,4.469-2.905,24.073,24.073,0,0,1,21.709,0,22.82,22.82,0,0,1,4.469,2.905,17.352,17.352,0,0,1,2.714,2.586A24.212,24.212,0,0,1,364.986,373.357Zm.255-34a12.2,12.2,0,0,1-5.331,10.088,30.6,30.6,0,0,0-38.469,0,12.2,12.2,0,0,1-5.331-10.088V327.864h49.131Zm6.129-18.421h-61.39a3.416,3.416,0,0,1,0-6.832h61.39a3.416,3.416,0,1,1,0,6.832Z" transform="translate(-300.18 -307.72)"/>
  </g>
</svg>
