<svg id="Group_1103" data-name="Group 1103" xmlns="http://www.w3.org/2000/svg" width="86.471" height="96.663" viewBox="0 0 86.471 96.663">
  <path id="digital_lock_ic" d="M476.357,334.309h-8.1V319.785a10,10,0,0,0-9.979-10.014H411.939a10,10,0,0,0-9.979,10.014v76.67a9.987,9.987,0,0,0,9.979,9.979h46.343a9.988,9.988,0,0,0,9.979-9.979V358.386h8.1a12.038,12.038,0,1,0,0-24.077Zm-15.2,62.146a2.887,2.887,0,0,1-2.877,2.876H411.939a2.887,2.887,0,0,1-2.877-2.876v-76.67a2.9,2.9,0,0,1,2.877-2.912h46.343a2.9,2.9,0,0,1,2.877,2.912v14.524h-9.624a20.419,20.419,0,1,0,0,24.077h9.624ZM439,358.386h1.74a13.043,13.043,0,0,1-5.647,1.279,13.317,13.317,0,0,1,0-26.634,13.043,13.043,0,0,1,5.647,1.279H439a12.038,12.038,0,1,0,0,24.077Zm37.358-7.1H439a4.936,4.936,0,1,1,0-9.872h37.358a4.936,4.936,0,1,1,0,9.872Z" transform="translate(-401.96 -309.77)"/>
</svg>
