<svg xmlns="http://www.w3.org/2000/svg" width="85.646" height="96.316" viewBox="0 0 85.646 96.316">
  <path id="gates_ic" d="M234.991,356.338c0-5.352-5.037-12.478-12.829-18.153a49.935,49.935,0,0,0-59.988,0c-7.766,5.672-12.784,12.8-12.784,18.154l.045,68.149h85.6Zm-45.137,51.7V419.9h-8.916V408.037Zm0-49.491v44.905h-8.916V358.546Zm0-25.723V353.96h-8.916V334.227A44.3,44.3,0,0,1,189.854,332.822Zm-13.5,75.215V419.9h-8.916V408.037Zm0-49.491v44.905h-8.916V358.546Zm0-22.849V353.96h-8.916V340.152A48.948,48.948,0,0,1,176.352,335.7ZM154.445,353.96c1.131-3.207,4.2-7.037,8.4-10.495V353.96Zm8.4,54.077V419.9h-8.83l-.008-11.867Zm-8.871-49.491h8.871v44.905h-8.841Zm40.463-4.586V332.822a44.41,44.41,0,0,1,8.916,1.4V353.96Zm0,49.491V358.546h8.916v44.905Zm0,16.452V408.037h8.916V419.9Zm13.5-65.944V335.69a49.209,49.209,0,0,1,8.916,4.439v13.83Zm0,49.491V358.546h8.916v44.905Zm0,16.452V408.037h8.916V419.9Zm13.5-65.944V343.424c4.25,3.47,7.348,7.316,8.489,10.535Zm0,49.491V358.546h8.961l.03,44.905Zm0,16.452V408.037h8.994l.008,11.867Z" transform="translate(-149.39 -328.174)"/>
</svg>
