<svg id="Group_1198" data-name="Group 1198" xmlns="http://www.w3.org/2000/svg" width="31.353" height="31.353" viewBox="0 0 31.353 31.353">
  <g id="Path_391" data-name="Path 391" transform="translate(0 0)" fill="#fff">
    <path d="M 15.6764554977417 30.35291481018066 C 11.75623512268066 30.35291481018066 8.070655822753906 28.82629585266113 5.298635482788086 26.05427551269531 C 2.526625394821167 23.28225517272949 1.000005483627319 19.59667587280273 1.000005483627319 15.6764554977417 C 1.000005483627319 11.75623512268066 2.526625394821167 8.070645332336426 5.298635482788086 5.298635482788086 C 8.070645332336426 2.526625394821167 11.75623512268066 1.000005483627319 15.6764554977417 1.000005483627319 C 19.59667587280273 1.000005483627319 23.28225517272949 2.526625394821167 26.05427551269531 5.298635482788086 C 28.82629585266113 8.070655822753906 30.35291481018066 11.75623512268066 30.35291481018066 15.6764554977417 C 30.35291481018066 19.59667587280273 28.82629585266113 23.28225517272949 26.05427551269531 26.05427551269531 C 23.28225517272949 28.82629585266113 19.59667587280273 30.35291481018066 15.6764554977417 30.35291481018066 Z" stroke="none"/>
    <path d="M 15.6764554977417 1.999996185302734 C 12.02334594726562 1.999996185302734 8.588874816894531 3.422595977783203 6.005735397338867 6.005735397338867 C 3.422595977783203 8.588874816894531 1.999996185302734 12.02334594726562 1.999996185302734 15.6764554977417 C 1.999996185302734 19.32956504821777 3.422595977783203 22.7640266418457 6.005735397338867 25.34716606140137 C 8.588874816894531 27.93030548095703 12.02334594726562 29.3529052734375 15.6764554977417 29.3529052734375 C 19.32956504821777 29.3529052734375 22.7640266418457 27.93030548095703 25.34716606140137 25.34716606140137 C 27.93030548095703 22.7640266418457 29.3529052734375 19.32956504821777 29.3529052734375 15.6764554977417 C 29.3529052734375 12.02334594726562 27.93030548095703 8.588874816894531 25.34716606140137 6.005735397338867 C 22.7640266418457 3.422595977783203 19.32956504821777 1.999996185302734 15.6764554977417 1.999996185302734 M 15.6764554977417 -3.814697265625e-06 C 24.33431625366211 -3.814697265625e-06 31.3529052734375 7.018585205078125 31.3529052734375 15.6764554977417 C 31.3529052734375 24.33431625366211 24.33431625366211 31.3529052734375 15.6764554977417 31.3529052734375 C 7.018585205078125 31.3529052734375 -3.814697265625e-06 24.33431625366211 -3.814697265625e-06 15.6764554977417 C -3.814697265625e-06 7.018585205078125 7.018585205078125 -3.814697265625e-06 15.6764554977417 -3.814697265625e-06 Z" stroke="none" fill="#0e95ff"/>
  </g>
  <g id="Path_392" data-name="Path 392" transform="translate(6.715 12.734) rotate(-30)" fill="none">
    <path d="M4.647.811a1.591,1.591,0,0,1,2.774,0l4.441,7.894a1.591,1.591,0,0,1-1.387,2.372H1.594A1.591,1.591,0,0,1,.207,8.705Z" stroke="none"/>
    <path d="M 6.03430700302124 2.424742698669434 L 2.292298316955566 9.07720947265625 L 9.776329040527344 9.07720947265625 L 6.03430700302124 2.424742698669434 M 6.034312725067139 3.814697265625e-06 C 6.575756549835205 3.814697265625e-06 7.117198944091797 0.2704191207885742 7.421414375305176 0.811248779296875 L 11.86192417144775 8.705478668212891 C 12.45867443084717 9.766368865966797 11.6920337677002 11.07720947265625 10.47481441497803 11.07720947265625 L 1.593804359436035 11.07720947265625 C 0.3765945434570312 11.07720947265625 -0.3900461196899414 9.766368865966797 0.2067041397094727 8.705478668212891 L 4.647203922271729 0.811248779296875 C 4.951424121856689 0.2704191207885742 5.49286937713623 3.814697265625e-06 6.034312725067139 3.814697265625e-06 Z" stroke="none" fill="#0e95ff"/>
  </g>
</svg>
