<svg xmlns="http://www.w3.org/2000/svg" width="138.489" height="71.065" viewBox="0 0 138.489 71.065">
  <g id="video_explainer" transform="translate(0.007 0)">
    <g id="Layer_1" data-name="Layer 1">
      <path id="Path_396" data-name="Path 396" d="M.92,48.5c1.33.55,2.68,1.08,4.07,1.58l5.36,1.84,4.11,1.42,1.91.67-.48-.65c-.18-.24-.32-.44-.42-.59a1.72,1.72,0,0,1-.19-.3q-1.41-2-4.18-6.38C9.25,43.19,7.83,41,6.85,39.55a.61.61,0,0,1-.1-.49A.65.65,0,0,1,7,38.64a.61.61,0,0,1,.49-.1.64.64,0,0,1,.43.28c1.08,1.57,2.51,3.75,4.28,6.51s3.22,5,4.15,6.4a2.43,2.43,0,0,1,.24.35l.49.69.57.77c.33.47.58.84.77,1.12a3.26,3.26,0,0,1,.25.4,1.5,1.5,0,0,1,.09.18l.07.15a.62.62,0,0,1-.11.54,1.1,1.1,0,0,1-.22.21.56.56,0,0,1-.49.07l-.25-.11h0a3,3,0,0,1-.34-.18c-.6-.28-1.75-.71-3.43-1.3l-3.31-1.15-3.61-1.2Q5.7,51.8,3.83,51.1c-1.26-.48-2.4-.93-3.43-1.37a.65.65,0,0,1-.35-.36.58.58,0,0,1,0-.5.64.64,0,0,1,.36-.36.66.66,0,0,1,.51-.01Z" fill="#0e95ff"/>
      <path id="Path_397" data-name="Path 397" d="M13.88,39a.61.61,0,0,1,.48.17.66.66,0,0,1,.2.47.65.65,0,0,1-.18.48.68.68,0,0,1-.94,0,.6.6,0,0,1-.2-.47.63.63,0,0,1,.17-.48A.65.65,0,0,1,13.88,39Zm2.65,2.49a15.75,15.75,0,0,0,3.28,3.8,13.17,13.17,0,0,0,4,2.86.78.78,0,0,1,.4.33.55.55,0,0,1,0,.5.75.75,0,0,1-.33.41.58.58,0,0,1-.5,0,13.83,13.83,0,0,1-4.56-3.17,15.71,15.71,0,0,1-3.56-4.16.75.75,0,0,1,0-.51.68.68,0,0,1,.84-.42.73.73,0,0,1,.43.32Z" fill="#0e95ff"/>
      <path id="Path_398" data-name="Path 398" d="M17.81,27q3,3.54,4.63,5.32t4.33,4.51A57.14,57.14,0,0,0,32,41.47a.68.68,0,0,1,.25.45.61.61,0,0,1-.12.5.68.68,0,0,1-.46.25.62.62,0,0,1-.5-.12q-1.77-1.36-3.51-2.95a11.38,11.38,0,0,1,.64,2.92,5,5,0,0,1-.59,3.1,2.31,2.31,0,0,1-1.62,1.21,2.47,2.47,0,0,1-1.81-.46,7.75,7.75,0,0,1-2.64-3.55A9.55,9.55,0,0,1,20.75,38a4.36,4.36,0,0,1,1.92-3.41q-1.94-2.09-5.89-6.7a.62.62,0,0,1-.16-.47.78.78,0,0,1,.23-.47.66.66,0,0,1,.48-.17A.71.71,0,0,1,17.81,27ZM25,37c-.46-.46-.92-.94-1.4-1.45a3,3,0,0,0-1.49,2.56,8.36,8.36,0,0,0,.78,4.17,6.75,6.75,0,0,0,2.17,3,1.23,1.23,0,0,0,.83.24,1.06,1.06,0,0,0,.71-.56,4,4,0,0,0,.4-2.35,9.12,9.12,0,0,0-.57-2.53,13,13,0,0,0-1.32-2.9A1.26,1.26,0,0,1,25,37Z" fill="#0e95ff"/>
      <path id="Path_399" data-name="Path 399" d="M29.77,35.33l-1.12.88a.68.68,0,0,1-.51.16.6.6,0,0,1-.45-.24.72.72,0,0,1-.15-.49.57.57,0,0,1,.23-.44l1.31-1-.25-.56q-1.27-2.84-.29-4.42A2.2,2.2,0,0,1,30.27,28a5,5,0,0,1,2.25.32,11.37,11.37,0,0,1,1.62.86,2.86,2.86,0,0,1,.53.49,1,1,0,0,1,.21.21.75.75,0,0,1,.12.57,1.57,1.57,0,0,1-.41.75,7.47,7.47,0,0,1-.69.68A22.908,22.908,0,0,1,32,33.53c-.33.29-.73.62-1.18,1a13.52,13.52,0,0,0,2,2.45c1.22,1.1,2.22,1.57,3,1.42s1.42-1.24,1.66-3.2a.78.78,0,0,1,.26-.45.65.65,0,0,1,.5-.12.63.63,0,0,1,.45.24.79.79,0,0,1,.15.49q-.5,3.9-2.78,4.37Q34.23,40,32,37.93a13.85,13.85,0,0,1-2.23-2.6Zm3.72-4.92a.27.27,0,0,0-.12-.09A7.46,7.46,0,0,0,32,29.57c-1.17-.44-2-.33-2.33.32s-.26,1.71.38,3.17a2.16,2.16,0,0,0,.1.25,12.737,12.737,0,0,1,1-.81q1.2-.95,1.86-1.56a4.28,4.28,0,0,0,.48-.53Z" fill="#0e95ff"/>
      <path id="Path_400" data-name="Path 400" d="M39.18,23.12a4.6,4.6,0,0,1,3.78.93,9.49,9.49,0,0,1,2.86,3.41,7.42,7.42,0,0,1,.9,4.23,3.71,3.71,0,0,1-2.53,3.22,4,4,0,0,1-3.81-.72,8.75,8.75,0,0,1-2.68-3.34,9,9,0,0,1-1-4.21,4.15,4.15,0,0,1,1.66-3.59.58.58,0,0,1,.82.07Zm-.49,1.43a3.08,3.08,0,0,0-.67,2.1,7.7,7.7,0,0,0,.89,3.6,7.4,7.4,0,0,0,2.27,2.84,2.59,2.59,0,0,0,2.53.53,2.38,2.38,0,0,0,1.68-2.09,5.9,5.9,0,0,0-.77-3.46,7.85,7.85,0,0,0-2.56-3,3.41,3.41,0,0,0-3-.58.74.74,0,0,1-.37.06Z" fill="#0e95ff"/>
      <path id="Path_401" data-name="Path 401" d="M50.38,10.78a55,55,0,0,0,6.08-4A.66.66,0,0,1,57,6.62a.58.58,0,0,1,.43.27.72.72,0,0,1,.13.51.51.51,0,0,1-.28.42,48.18,48.18,0,0,1-5.75,3.87c0,.06.41,1.13,1.15,3.2q.91,2.57,1.65,4.32L58,16a.73.73,0,0,1,.5-.16A.55.55,0,0,1,59,16a.8.8,0,0,1,.17.5.56.56,0,0,1-.22.45L57,18.62,54.86,20.5h0a23.9,23.9,0,0,0,2.24,4.08c.82,1.11,1.52,1.64,2.12,1.57a6,6,0,0,0,3.35-1.85c.39-.35.91-.86,1.57-1.55s1.21-1.27,1.49-1.55a.71.71,0,0,1,.48-.16.68.68,0,0,1,.46.21.65.65,0,0,1,.17.47.69.69,0,0,1-.2.48c-.25.24-.73.73-1.44,1.49a20.874,20.874,0,0,1-1.67,1.63,7.53,7.53,0,0,1-4.11,2.17c-1.1.14-2.21-.56-3.33-2.08a24.9,24.9,0,0,1-2.58-4.79q-.9-2-2-5.28c-.8-2.23-1.24-3.45-1.33-3.65a.66.66,0,0,1,.13-.75A.41.41,0,0,1,50.38,10.78Z" fill="#0e95ff"/>
      <path id="Path_402" data-name="Path 402" d="M70.11,16.89a53.619,53.619,0,0,0-4.52-4,.63.63,0,0,1-.23-.46.65.65,0,0,1,.14-.49.66.66,0,0,1,.46-.23.62.62,0,0,1,.49.15,49.413,49.413,0,0,1,4,3.56,37.15,37.15,0,0,1,1.81-5.54.72.72,0,0,1,.37-.38.61.61,0,0,1,.51,0,.74.74,0,0,1,.36.38.53.53,0,0,1,0,.49,41.68,41.68,0,0,0-1.93,6.16,49.19,49.19,0,0,1,4.09,4.71.69.69,0,0,1,.1.48.63.63,0,0,1-.24.44.71.71,0,0,1-1-.13,41.828,41.828,0,0,0-3.36-3.92q-.42,2-1,5.25a.63.63,0,0,1-.27.41.62.62,0,0,1-.49.12.6.6,0,0,1-.43-.26.71.71,0,0,1-.13-.51Q69.58,19.31,70.11,16.89Z" fill="#0e95ff"/>
      <path id="Path_403" data-name="Path 403" d="M80.56,21.36c.34,2.09.63,4.08.86,6a.7.7,0,0,1-.15.5.72.72,0,0,1-.45.24.61.61,0,0,1-.48-.14.71.71,0,0,1-.25-.43A151,151,0,0,0,76.87,10,.68.68,0,0,1,77,9.42a.6.6,0,0,1,.42-.29.76.76,0,0,1,.51.09.59.59,0,0,1,.28.41c.24,1,.45,1.91.65,2.83.2-.39.41-.76.63-1.1a4.8,4.8,0,0,1,2.48-2.13,2.75,2.75,0,0,1,2,.06,2.81,2.81,0,0,1,1.33,1.33,7.08,7.08,0,0,1,.51,4.15,9.37,9.37,0,0,1-1.58,4.32,4.65,4.65,0,0,1-3.67,2.27ZM80.35,20h.08A3.32,3.32,0,0,0,83,18.35a8.76,8.76,0,0,0,1.38-3.75,6.15,6.15,0,0,0-.37-3.38,1.32,1.32,0,0,0-1.72-.7,3.45,3.45,0,0,0-1.76,1.58,9.9,9.9,0,0,0-1.17,2.46.48.48,0,0,1-.07.2Q79.91,17.49,80.35,20Z" fill="#0e95ff"/>
      <path id="Path_404" data-name="Path 404" d="M89.25.79a40,40,0,0,0,.19,9.65,37.421,37.421,0,0,0,1.94,9.48.65.65,0,0,1,0,.51.62.62,0,0,1-.36.35.65.65,0,0,1-.51,0,.62.62,0,0,1-.35-.36,37.43,37.43,0,0,1-2-9.84A40.21,40.21,0,0,1,88,.55a.48.48,0,0,1,.23-.42A.86.86,0,0,1,88.7,0a.56.56,0,0,1,.43.26.74.74,0,0,1,.12.53Z" fill="#0e95ff"/>
      <path id="Path_405" data-name="Path 405" d="M99.85,8.91a3.74,3.74,0,0,0-2.66,1.34A11.34,11.34,0,0,0,95,13.76a11.63,11.63,0,0,0-1.07,3.8c-.09,1.05,0,1.67.4,1.88a1,1,0,0,0,.76.22,1.67,1.67,0,0,0,.76-.52A10.08,10.08,0,0,0,97.42,16c.31-.83.71-2.1,1.22-3.8l.41-1.4a4.674,4.674,0,0,0,.2-.5,1,1,0,0,1,.43-.47.64.64,0,0,1,.82.11.71.71,0,0,1,.13.22l.08.22a1.79,1.79,0,0,1,.06.4c0,.33.09.72.14,1.19.07.8.11,1.35.12,1.68V14c0,.22.09.68.15,1.37.16,1.66.36,3.11.6,4.34a.62.62,0,0,1-.1.49.68.68,0,0,1-1.23-.27c-.24-1.26-.44-2.73-.61-4.41-.06-.69-.11-1.15-.14-1.38v-.7a31.554,31.554,0,0,1-1,3A10.86,10.86,0,0,1,96.78,20a2.59,2.59,0,0,1-1.45.93,2.38,2.38,0,0,1-1.81-.35c-.78-.53-1.11-1.59-1-3.16a12.82,12.82,0,0,1,1.2-4.21,13,13,0,0,1,2.52-3.9,5,5,0,0,1,3.68-1.77.77.77,0,0,1,.46.22.57.57,0,0,1,.17.48.81.81,0,0,1-.21.48A.61.61,0,0,1,99.85,8.91Z" fill="#0e95ff"/>
      <path id="Path_406" data-name="Path 406" d="M105.6,9.29a15.67,15.67,0,0,0-.41,5,12.88,12.88,0,0,0,.78,4.88.78.78,0,0,1,0,.52.59.59,0,0,1-.33.38.75.75,0,0,1-.53,0,.51.51,0,0,1-.37-.33,13.77,13.77,0,0,1-1-5.47,15.8,15.8,0,0,1,.48-5.45.72.72,0,0,1,.35-.38.66.66,0,0,1,.5,0,.62.62,0,0,1,.38.33.72.72,0,0,1,.15.52Zm-.08-3.64a.65.65,0,0,1,0,.94.73.73,0,0,1-.47.21.69.69,0,0,1-.47-.2.62.62,0,0,1-.21-.46.63.63,0,0,1,.2-.47.62.62,0,0,1,.93,0Z" fill="#0e95ff"/>
      <path id="Path_407" data-name="Path 407" d="M109.23,8.05v6.91a18.81,18.81,0,0,1,1.49-3.29q1.55-2.58,3.34-3a2.08,2.08,0,0,1,1.71.26,3,3,0,0,1,1.06,1.3,11.79,11.79,0,0,1,1,3.93c.06.58.11,1.16.15,1.76s.06,1.18.07,1.76,0,1.07,0,1.49v2.05a.65.65,0,0,1-.2.46.59.59,0,0,1-.47.2.74.74,0,0,1-.48-.2.62.62,0,0,1-.19-.49V16.53a15.462,15.462,0,0,0-.18-2.17,10.55,10.55,0,0,0-.82-3.49,2.1,2.1,0,0,0-.61-.79.82.82,0,0,0-.6-.09,4.81,4.81,0,0,0-2.51,2.45A15.4,15.4,0,0,0,110.33,16v.11l-.09.33L110,17.51c-.23,1-.35,1.61-.38,1.71a.28.28,0,0,1,0,.11,1.091,1.091,0,0,0,0,.22v.3a2.311,2.311,0,0,1,0,.45l-.16.26a.79.79,0,0,1-.56.21.89.89,0,0,1-.34-.08.36.36,0,0,1-.18-.19l-.07-.08a.76.76,0,0,1-.11-.26.54.54,0,0,1,0-.19,2.22,2.22,0,0,1,0-.41,8.511,8.511,0,0,0-.08-1.31c0-.92-.06-2.19-.07-3.81V8.03a.7.7,0,0,1,.19-.47.6.6,0,0,1,.47-.19.66.66,0,0,1,.48.2.61.61,0,0,1,.04.48Z" fill="#0e95ff"/>
      <path id="Path_408" data-name="Path 408" d="M121.19,13.84l-1.42-.1a.72.72,0,0,1-.49-.22.66.66,0,0,1-.17-.48.74.74,0,0,1,.22-.47.57.57,0,0,1,.47-.17l1.67.12.19-.59q1-3,2.76-3.46a2.21,2.21,0,0,1,2.07.3,5,5,0,0,1,1.45,1.75,12.319,12.319,0,0,1,.62,1.73,3.17,3.17,0,0,1,.06.71,1,1,0,0,1,0,.3.77.77,0,0,1-.29.5,1.55,1.55,0,0,1-.81.28,6.88,6.88,0,0,1-1,0,21,21,0,0,1-2.5-.07,11.643,11.643,0,0,1-1.52-.07,13.66,13.66,0,0,0-.16,3.17c.16,1.63.58,2.66,1.27,3.08s1.89,0,3.38-1.25a.79.79,0,0,1,.5-.15A.6.6,0,0,1,128,19a.61.61,0,0,1,.17.48.71.71,0,0,1-.22.47q-3,2.55-5,1.36c-1.07-.68-1.69-2.05-1.87-4.1a14,14,0,0,1,.11-3.37Zm6.06-1.13a.26.26,0,0,0,0-.15,7.4,7.4,0,0,0-.5-1.46c-.56-1.11-1.21-1.55-1.94-1.33s-1.34,1.08-1.85,2.59a1.154,1.154,0,0,1-.09.26l1.26.05c1,.08,1.83.11,2.43.1a3.28,3.28,0,0,0,.69-.06Z" fill="#0e95ff"/>
      <path id="Path_409" data-name="Path 409" d="M132,17.13l-.63,5a.66.66,0,0,1-.26.44.69.69,0,0,1-.49.14.62.62,0,0,1-.43-.26.65.65,0,0,1-.15-.49q1-8,1.11-11.48a.6.6,0,0,1,.21-.48.75.75,0,0,1,.5-.18.59.59,0,0,1,.46.21.71.71,0,0,1,.18.47c0,1.18-.12,2.44-.21,3.81a12,12,0,0,1,5.29-4.11.73.73,0,0,1,.5,0,.57.57,0,0,1,.35.36.7.7,0,0,1,0,.53.54.54,0,0,1-.38.34,9.75,9.75,0,0,0-3.36,2.23A14,14,0,0,0,132,17a.31.31,0,0,0,0,.13Z" fill="#0e95ff"/>
      <path id="Path_410" data-name="Path 410" d="M125.51,58l-.74.11c-.36,0-.69.09-1,.11H122.1a18.14,18.14,0,0,1-1.83-.12,5.956,5.956,0,0,1-.83-.1l-.44-.07h-.2a20.11,20.11,0,0,1-3.47-1l-.85-.35h0l-.12-.05h0l-.4-.2c-.52-.26-1-.57-1.59-.9a.9.9,0,0,0-1.24.29.76.76,0,0,0-.11.59.92.92,0,0,0,.39.6,20.82,20.82,0,0,0,6.56,2.68.68.68,0,0,1,.1,1.31A20.21,20.21,0,0,1,106.74,62h-.2a.72.72,0,0,1-.51-.31.68.68,0,0,1-.09-.57,14,14,0,0,0,.55-3.54,21.94,21.94,0,0,0-1.38-7.84,16.67,16.67,0,0,0-4.26-6.88,11.93,11.93,0,0,0-6.75-3,8.6,8.6,0,0,0-6.53,2c-1.71,1.52-2.41,3.64-2.13,6.49a12.83,12.83,0,0,0,3.71,7.15A26.59,26.59,0,0,0,102.08,63a.7.7,0,0,1,.49.44.72.72,0,0,1-.1.65l-.51.62v.06h0l-.22.23a12.542,12.542,0,0,1-1.08,1,15.236,15.236,0,0,1-1.26.94h-.07l-.09.06-.11.06-.22.13c-.23.14-.46.26-.68.37q-.67.34-1.47.66l-.47.17-.22.08H95.9l-.28.08a16.941,16.941,0,0,1-3.19.54H91.12a11.6,11.6,0,0,1-1.61-.17l-.9-.16h-.32L88,68.68c-.52-.14-1-.3-1.55-.49a12.575,12.575,0,0,1-1.49-.63A10.809,10.809,0,0,1,83.6,67a21.9,21.9,0,0,1-2.74-1.89l-.68-.58-.09-.08h-.06l-.15-.15-.09-.08q-.57-.54-1.14-1.17A21.24,21.24,0,0,1,75,57.78a26.247,26.247,0,0,1-1.26-3,.284.284,0,0,0-.08-.23l-.06-.18h0v-.06h0c-.09-.27-.16-.52-.23-.77-.13-.48-.25-1-.37-1.55-.08-.37-.2-.73-.32-1.12a9.26,9.26,0,0,1-.45-1.9,5,5,0,0,0-.07-1v-.06a.66.66,0,0,0,0-.13V47.7a1.46,1.46,0,0,0,0-.21h0V45.9a25.739,25.739,0,0,1,.28-3.17c.09-.6.19-1.15.3-1.68h0l.11-.46.21-.77a25,25,0,0,1,1.06-3c.21-.51.45-1,.7-1.53l.09-.15c.06-.12.12-.24.19-.36s.26-.46.4-.69a.94.94,0,0,0-.2-1.27,1,1,0,0,0-.74-.12.76.76,0,0,0-.47.31A26.5,26.5,0,0,0,75.6,62.1a22,22,0,0,0,11.12,8.22,16.16,16.16,0,0,0,13-1.46,14.47,14.47,0,0,0,4.79-4.51l.22-.36a.69.69,0,0,1,.65-.34,34.18,34.18,0,0,0,12.23-1.21h.08a.67.67,0,0,1,.67.31.69.69,0,0,1,0,.81,22.42,22.42,0,0,0-3.3,5.21.56.56,0,0,0,0,.48,1.07,1.07,0,0,0,.57.56c.65.21,1-.4,1.12-.62v-.08a2.68,2.68,0,0,0,.12-.24h0l.15-.3h0c.17-.33.31-.59.45-.82a13.175,13.175,0,0,1,1-1.51,17.82,17.82,0,0,1,2.06-2.49,19.32,19.32,0,0,1,5.57-4,.88.88,0,0,0,.24-.19h0a1,1,0,0,0,.24-.81.91.91,0,0,0-1.07-.75Zm-21.4,3.11a.68.68,0,0,1-.56.46h-.41l-.4-.09L102,61.2a26.33,26.33,0,0,1-3.07-1c-.53-.22-1.06-.46-1.58-.71l-.28-.14h-.06l-.7-.38a24.429,24.429,0,0,1-2.72-1.77c-.44-.32-.87-.66-1.3-1h0l-.26-.22h0l-.08-.09c-.16-.13-.34-.3-.51-.46a17.77,17.77,0,0,1-2.69-3.18,9.75,9.75,0,0,1-1.31-3.16c-.07-.37-.11-.74-.14-1a.35.35,0,0,1,0-.06.29.29,0,0,1,0-.13h0v-.45a4.291,4.291,0,0,1,.09-.9.577.577,0,0,1,.05-.27v-.1l.07-.26a6.189,6.189,0,0,1,.3-.77.73.73,0,0,1,.12-.57,4.58,4.58,0,0,1,.4-.53.12.12,0,0,1,.05-.05.75.75,0,0,0,.11-.13l.09-.09h0l.25-.23a7.1,7.1,0,0,1,.7-.54h.12l.11-.07.38-.21c.24-.12.49-.23.76-.34L91,42h0l.22-.07h.06a8,8,0,0,1,3.4-.26h0l.38.07h.06l.29.08a8.1,8.1,0,0,1,.8.26l.55.23.2.09.16.07.29.16h.09a10.77,10.77,0,0,1,2.5,1.9,13.58,13.58,0,0,1,2.23,3.12,21.21,21.21,0,0,1,2.3,7.11,13.62,13.62,0,0,1-.42,6.31Z" fill="#0e95ff"/>
    </g>
  </g>
</svg>
