<svg xmlns="http://www.w3.org/2000/svg" width="18.004" height="21.41" viewBox="0 0 18.004 21.41">
  <g id="accessories_ic" transform="translate(-300.18 -307.72)">
    <path id="Path_367" data-name="Path 367" d="M312.84,323.339a3.7,3.7,0,0,0-3.009,0,3.733,3.733,0,1,0,3.009,0Zm-1.5,5.72a2.31,2.31,0,1,1,2.313-2.306A2.311,2.311,0,0,1,311.336,329.059Z" transform="translate(-2.157 -4.443)"/>
    <path id="Path_369" data-name="Path 369" d="M316,307.72H302.359a2.175,2.175,0,0,0-.057,4.35v2.682a4.131,4.131,0,0,0,1.59,3.257,6.823,6.823,0,1,0,10.581,0,4.131,4.131,0,0,0,1.59-3.257V312.07a2.175,2.175,0,0,0-.057-4.35Zm-1.419,14.59a5.4,5.4,0,0,1-10.808,0,5.334,5.334,0,0,1,1.4-3.612,3.81,3.81,0,0,1,.6-.575,5.073,5.073,0,0,1,.993-.646,5.351,5.351,0,0,1,4.826,0,5.073,5.073,0,0,1,.993.646,3.857,3.857,0,0,1,.6.575A5.382,5.382,0,0,1,314.586,322.31Zm.057-7.558A2.712,2.712,0,0,1,313.457,317a6.8,6.8,0,0,0-8.551,0,2.712,2.712,0,0,1-1.185-2.242V312.2h10.921ZM316,310.658H302.359a.759.759,0,1,1,0-1.519H316a.759.759,0,1,1,0,1.519Z" transform="translate(0 0)"/>
  </g>
</svg>
