<svg id="contact_ic" xmlns="http://www.w3.org/2000/svg" width="17.989" height="17.171" viewBox="0 0 17.989 17.171">
  <path id="Combined-Shape" d="M10.994,20.171a1.635,1.635,0,1,1,1.417-2.453h1.858A1.637,1.637,0,0,0,15.9,16.081V9.54a4.906,4.906,0,0,0-9.812,0v4.5A2.044,2.044,0,0,1,2,14.04V11.584A2.044,2.044,0,0,1,4.044,9.541h.409a6.541,6.541,0,0,1,13.083,0l.409,0a2.045,2.045,0,0,1,2.044,2.043V14.04a2.044,2.044,0,0,1-2.044,2.043h-.409a3.272,3.272,0,0,1-3.267,3.271H12.411A1.635,1.635,0,0,1,10.994,20.171Zm-6.95-8.994a.409.409,0,0,0-.409.408V14.04a.409.409,0,0,0,.818,0V11.177ZM18.353,14.04V11.584a.409.409,0,0,0-.409-.408h-.409v3.271h.409A.408.408,0,0,0,18.353,14.04Zm-9.4-.41A1.227,1.227,0,1,1,10.177,12.4,1.226,1.226,0,0,1,8.95,13.63Zm4.088,0A1.227,1.227,0,1,1,14.265,12.4,1.226,1.226,0,0,1,13.039,13.63Z" transform="translate(-2 -3)" fill-rule="evenodd"/>
</svg>
