<svg xmlns="http://www.w3.org/2000/svg" width="18.025" height="20.149" viewBox="0 0 18.025 20.149">
  <g id="digital_lock_ic" transform="translate(-401.96 -309.77)">
    <path id="Path_362" data-name="Path 362" d="M417.468,314.885H415.78v-3.028a2.084,2.084,0,0,0-2.08-2.087h-9.66a2.083,2.083,0,0,0-2.08,2.087v15.982a2.082,2.082,0,0,0,2.08,2.08h9.66a2.082,2.082,0,0,0,2.08-2.08V319.9h1.688a2.509,2.509,0,1,0,0-5.019ZM414.3,327.839a.6.6,0,0,1-.6.6h-9.66a.6.6,0,0,1-.6-.6V311.857a.6.6,0,0,1,.6-.607h9.66a.6.6,0,0,1,.6.607v3.028h-2.006a4.256,4.256,0,1,0,0,5.019H414.3Zm-4.619-7.935h.363a2.719,2.719,0,0,1-1.177.267,2.776,2.776,0,0,1,0-5.552,2.719,2.719,0,0,1,1.177.267h-.363a2.509,2.509,0,1,0,0,5.019Zm7.787-1.48h-7.787a1.029,1.029,0,1,1,0-2.058h7.787a1.029,1.029,0,1,1,0,2.058Z" transform="translate(0)"/>
  </g>
</svg>
