<svg xmlns="http://www.w3.org/2000/svg" width="20.249" height="23.417" viewBox="0 0 20.249 23.417">
  <g id="doors_nd_gates_ic" transform="translate(-364.5 -306.723)">
    <path id="Path_364" data-name="Path 364" d="M382.814,320.753a2.239,2.239,0,0,0-1.453-.6.3.3,0,0,0-.08-.007,2.278,2.278,0,0,0-2.26,2.26,2.262,2.262,0,0,0,2.26,2.26.3.3,0,0,0,.08-.007,2.239,2.239,0,0,0,1.453-.6,2.252,2.252,0,0,0,0-3.314Zm-1.453,2.456a.272.272,0,0,1-.08.007.807.807,0,1,1,0-1.613.272.272,0,0,1,.08.007.8.8,0,0,1,0,1.6Z" transform="translate(-4.756 -4.393)"/>
    <path id="Path_363" data-name="Path 363" d="M384.216,308.545l-12.132-1.8a.651.651,0,0,0-.574.133.708.708,0,0,0-.26.547v1.1h-6.066a.7.7,0,0,0-.684.7v18.411a.7.7,0,0,0,.684.7h6.066v1.1a.708.708,0,0,0,.26.547.673.673,0,0,0,.424.154,1.091,1.091,0,0,0,.15-.014l12.132-1.8a.7.7,0,0,0,.533-.687V309.225A.687.687,0,0,0,384.216,308.545Zm-12.966,18.39h-2.838v-14.64h2.838Zm0-16.042h-3.522a.69.69,0,0,0-.684.7v15.341h-1.176V309.926h5.382Zm12.132,16.182-10.764,1.488V308.3l10.764,1.488Z"/>
  </g>
</svg>
