<svg xmlns="http://www.w3.org/2000/svg" width="16.833" height="16.833" viewBox="0 0 16.833 16.833">
  <g id="hmc_ic" transform="translate(-4 -4)">
    <path id="Combined-Shape" d="M13.258,15.362h.421a.842.842,0,0,1,0,1.683H11.154a.842.842,0,0,1,0-1.683h.421V12.837h-.418a.842.842,0,1,1,0-1.683h1.258a.843.843,0,0,1,.844.842Zm-.842,5.471a8.417,8.417,0,1,1,8.417-8.417A8.417,8.417,0,0,1,12.417,20.833Zm0-1.683a6.733,6.733,0,1,0-6.733-6.733A6.733,6.733,0,0,0,12.417,19.15Zm0-8.837A1.262,1.262,0,1,1,13.679,9.05,1.262,1.262,0,0,1,12.417,10.312Z" fill-rule="evenodd"/>
  </g>
</svg>
