<svg id="promotions_ic" xmlns="http://www.w3.org/2000/svg" width="18.452" height="17.171" viewBox="0 0 18.452 17.171">
  <path id="Combined-Shape" d="M6.192,15.311a4.194,4.194,0,0,1,0-8.387h7.3l3.269-2.6a1.193,1.193,0,0,1,2.017.979V9.44a1.677,1.677,0,1,1,0,3.355v4.152a1.191,1.191,0,0,1-2.014.979l-3.317-2.615H12.3l.99,4.006a1.461,1.461,0,0,1-1.451,1.855H9.319a1.964,1.964,0,0,1-1.854-1.452L6.376,15.311Zm2.9,4.006a.349.349,0,0,0,.226.188h2.286l-1.036-4.194H8.1Zm-1.64-7.361a.839.839,0,1,1,0-1.677h2.934V8.6h-4.2a2.516,2.516,0,0,0,0,5.032h4.2V11.956ZM17.1,6.209,14.26,8.422a.839.839,0,0,1-.518.179H12.065v5.032h1.677a.839.839,0,0,1,.52.181L17.1,16.055V11.172q0-.027,0-.055t0-.054Z" transform="translate(-2 -4)" fill-rule="evenodd"/>
</svg>
