<svg xmlns="http://www.w3.org/2000/svg" width="14.427" height="14.071" viewBox="0 0 14.427 14.071">
  <g id="recently_seen_ic" transform="translate(-54.741 -67)">
    <path id="Path_204" data-name="Path 204" d="M231.19,161.114a.769.769,0,0,1-.769.769h-2.653a.769.769,0,0,1-.769-.769v-3.345a.769.769,0,1,1,1.538,0v2.576h1.884A.769.769,0,0,1,231.19,161.114Z" transform="translate(-165.637 -86.54)"/>
    <path id="Path_205" data-name="Path 205" d="M69.168,74.035A7.036,7.036,0,0,1,56.3,77.969a.769.769,0,0,1,.206-1.068.76.76,0,0,1,.334-.126.769.769,0,0,1,.734.333,5.5,5.5,0,1,0,.414-6.684c-.067.077-.132.156-.194.236l.325-.1a.769.769,0,0,1,.45,1.471l-2.169.663a.761.761,0,0,1-.075.019.768.768,0,0,1-.885-.529l-.663-2.169a.769.769,0,1,1,1.471-.45l.13.424a7.107,7.107,0,0,1,.452-.576,7.035,7.035,0,0,1,12.34,4.621Z"/>
  </g>
</svg>
