<svg xmlns="http://www.w3.org/2000/svg" width="15.443" height="14.165" viewBox="0 0 15.443 14.165">
  <path id="saved_product_ic" d="M5.544,10.633c0,2.412,2.363,5.328,6.181,7.824,3.818-2.5,6.173-5.35,6.173-7.824a3.089,3.089,0,0,0-5.147-2.3L12.008,9a.438.438,0,0,1-.574,0l-.743-.665a3.089,3.089,0,0,0-5.147,2.3ZM11.721,7.18a4.633,4.633,0,0,1,7.721,3.453c0,3.734-3.865,7.335-7.394,9.448a.68.68,0,0,1-.653,0C7.844,17.977,4,14.367,4,10.633A4.633,4.633,0,0,1,11.721,7.18Z" transform="translate(-4 -6)"/>
</svg>
