<svg id="shop_ic" xmlns="http://www.w3.org/2000/svg" width="17.333" height="16.893" viewBox="0 0 17.333 16.893">
  <path id="Combined-Shape" d="M10.851,14.508a.938.938,0,0,1-1.877,0H8.035v7.508h3.754v-4.69a.937.937,0,0,1,.938-.941h1.879a.939.939,0,0,1,.938.941v4.69H19.3V14.508h-.938a.938.938,0,0,1-1.877,0H14.6a.938.938,0,0,1-1.877,0H10.851Zm0-1.877h1.877v-.939a.938.938,0,0,1,1.877,0v.939h1.877v-.939a.938.938,0,0,1,1.877,0v.939h1.2c.8,0,1.063-.361.817-1.127l-.844-2.627H7.777L6.96,11.5c-.246.766.017,1.127.817,1.127h1.2v-.939a.938.938,0,0,1,1.877,0v.939ZM21.174,14.1v8.856a.938.938,0,0,1-.939.941H7.1a.94.94,0,0,1-.939-.941V14.1a2.577,2.577,0,0,1-.985-3.166l.976-3.039A1.364,1.364,0,0,1,7.373,7H19.96a1.373,1.373,0,0,1,1.224.891l.976,3.039a2.576,2.576,0,0,1-.986,3.166Z" transform="translate(-5 -7)" fill-rule="evenodd"/>
</svg>
