<svg xmlns="http://www.w3.org/2000/svg" width="21.215" height="18.689" viewBox="0 0 21.215 18.689">
  <g id="Group_530" data-name="Group 530" transform="translate(-609.708 -1143)">
    <path id="Path_249" data-name="Path 249" d="M627.174,1154.279h-1.137v-1.137a1.14,1.14,0,1,0-2.279,0v1.137h-1.137a1.139,1.139,0,1,0,0,2.279h1.137v1.137a1.14,1.14,0,1,0,2.279,0v-1.137h1.137a1.139,1.139,0,1,0,0-2.279Z" transform="translate(-1.04 -0.795)" fill="#fff"/>
    <path id="Path_250" data-name="Path 250" d="M628.846,1149.628a7.1,7.1,0,0,0-4.913-2.068l-2.277-3.986a1.139,1.139,0,1,0-1.978,1.13l1.854,3.245a7.113,7.113,0,0,0-2.411,1.432h-3.783l2.672-4.677a1.139,1.139,0,1,0-1.978-1.13l-3.319,5.807h-2.074a.888.888,0,0,0-.891,1.17l2.255,8.266a1.48,1.48,0,0,0,1.368,1.049h5.751a7.062,7.062,0,0,0,9.725-10.238Zm-4.989,9.782a4.786,4.786,0,1,1,4.786-4.786A4.791,4.791,0,0,1,623.858,1159.41Zm-6.974-3.647a7.036,7.036,0,0,0,.558,1.823h-3.409l-.5-1.823Zm.558-4.1a7.041,7.041,0,0,0-.558,1.823h-3.966l-.494-1.823Z" fill="#fff"/>
  </g>
</svg>
