<svg xmlns="http://www.w3.org/2000/svg" width="21.926" height="27.624" viewBox="0 0 21.926 27.624">
  <g id="Group_369" data-name="Group 369" transform="translate(-1472.381 -172)">
    <g id="Group_368" data-name="Group 368" transform="translate(1411.877 155.45)">
      <g id="Group_357" data-name="Group 357" transform="translate(68.013 23.865)">
        <rect id="Rectangle_426" data-name="Rectangle 426" width="6.914" height="8.909" fill="none"/>
      </g>
      <g id="Group_361" data-name="Group 361" transform="translate(66.661 21.64)">
        <g id="Group_358" data-name="Group 358" transform="translate(0 0)">
          <path id="Path_174" data-name="Path 174" d="M174.774,108.425s-.5,1.317-1.45,1.032c-.793-.238-.748-1.314-.366-2.2.661-1.538-1.226-2.715-1.226-2.715a2.486,2.486,0,0,1-1.17,2.154,1.741,1.741,0,0,0-.831,2.448.9.9,0,0,1-.44,1.4c-1.052.422-1.665-.885-1.665-.885a4.81,4.81,0,0,0,4.077,7.3,2.223,2.223,0,0,1-2.185-2.218,3.7,3.7,0,0,1,.342-1.522l.129-.293.651.19a2.453,2.453,0,0,1,.776-1.341,2.746,2.746,0,0,1,.8-.513l.443-.168.048.471a2.835,2.835,0,0,0,.381,1.22c.186.3.358.557.56.846a1.936,1.936,0,0,1,.312,1.109,2.22,2.22,0,0,1-2.221,2.219h0a4.809,4.809,0,0,0,3.037-8.539Zm0,0" transform="translate(-166.928 -104.541)" fill="#0e95ff"/>
          <path id="Path_175" data-name="Path 175" d="M227.25,239.148a1.227,1.227,0,0,0-.181-.69c-.181-.259-.377-.545-.584-.883a3.28,3.28,0,0,1-.4-.99,1.767,1.767,0,0,0-.754,1.419l-.009.476-.9-.262a2.744,2.744,0,0,0-.164.927v0a1.493,1.493,0,0,0,2.985,0Zm0,0" transform="translate(-220.947 -228.947)" fill="#0e95ff"/>
        </g>
        <g id="Group_360" data-name="Group 360" transform="translate(2.98 7.223)">
          <g id="Group_359" data-name="Group 359">
            <path id="Path_176" data-name="Path 176" d="M220.318,234.542l-1.252-.963-.626-1.782.578-.77.482-.385,1.348-1.252.963,1.926.289,1.541-.578,1.059Z" transform="translate(-218.44 -229.389)" fill="#fff"/>
          </g>
        </g>
      </g>
      <g id="Group_362" data-name="Group 362" transform="translate(60.504 16.55)">
        <path id="Path_177" data-name="Path 177" d="M71.467,44.174l-6.548-5.012A11.067,11.067,0,0,1,60.5,30.306V19.115l.587-.272a24.622,24.622,0,0,1,20.753,0l.587.272V30.306a11.068,11.068,0,0,1-4.415,8.856ZM62.529,20.418v9.888a9.042,9.042,0,0,0,3.621,7.248l5.317,4.07,5.317-4.07A9.042,9.042,0,0,0,80.4,30.306V20.418A22.6,22.6,0,0,0,62.529,20.418Z" transform="translate(-60.504 -16.55)" fill="#0e95ff"/>
      </g>
    </g>
  </g>
</svg>
