<svg xmlns="http://www.w3.org/2000/svg" width="44.202" height="45.776" viewBox="0 0 44.202 45.776">
  <g id="Mortise" transform="translate(-118 -353.538)">
    <path id="Path_247" data-name="Path 247" d="M197.882,474.574v2.832a2.917,2.917,0,0,0,5.834,0v-2.888a4.763,4.763,0,1,0-5.834.056Zm2.881-6.27A2.477,2.477,0,0,1,202,472.926l-.571.33v4.149a.631.631,0,0,1-1.261,0V473.28l-.594-.325a2.477,2.477,0,0,1,1.188-4.65Z" transform="translate(-63.139 -91.05)" fill="#0e95ff"/>
    <path id="Path_248" data-name="Path 248" d="M157.725,360.778h-8.478v-7.24H125.812v8.193H118v8h7.812v5.525H118v12.956h7.812v11.1h23.435V369.733h8.478a4.477,4.477,0,0,0,0-8.955Zm-37.439,6.668v-3.43h5.525v3.43Zm5.525,10.1v8.383h-5.525v-8.383Zm31.913-10.1H137.338a2.191,2.191,0,0,1,0-4.382h20.386a2.191,2.191,0,0,1,0,4.382Zm-10.765-6.668h-9.622a4.477,4.477,0,0,0,0,8.955h9.622v27.295H128.1v-41.2H146.96Z" transform="translate(0)" fill="#0e95ff"/>
  </g>
</svg>
