<svg xmlns="http://www.w3.org/2000/svg" width="44.966" height="51.952" viewBox="0 0 44.966 51.952">
  <g id="Group_527" data-name="Group 527" transform="translate(-35.479 -130.5)">
    <path id="Path_244" data-name="Path 244" d="M211.506,186.793,209,184.285a1.043,1.043,0,1,0-1.475,1.475l.623.623h-5.623a1.043,1.043,0,1,0,0,2.086h5.832l-.831.831A1.043,1.043,0,1,0,209,190.776l2.508-2.508A1.045,1.045,0,0,0,211.506,186.793Z" transform="translate(-131.365 -42.321)" fill="#0e95ff"/>
    <path id="Path_245" data-name="Path 245" d="M41.217,190.038a1.043,1.043,0,0,0,1.781.738l2.508-2.508a1.044,1.044,0,0,0,0-1.476L43,184.285a1.043,1.043,0,1,0-1.475,1.475l.623.623H36.522a1.043,1.043,0,0,0,0,2.086h5.832l-.831.831A1.037,1.037,0,0,0,41.217,190.038Z" transform="translate(0 -42.321)" fill="#0e95ff"/>
    <path id="Path_246" data-name="Path 246" d="M101.118,153.336a1.761,1.761,0,0,0-1.7.04,5.09,5.09,0,0,0-2.117,2.4L95.176,160.8a2.483,2.483,0,0,1-1.134,1.23l-1.912,1L89.6,141.786a5.068,5.068,0,0,0-3.959-4.333V130.5H75.835v6.953a5.073,5.073,0,0,0-3.959,4.333l-2.39,20.077-.094-.094v-7.834a1.6,1.6,0,0,0-1.594-1.6c-1.474,0-3.188,1.208-3.2,2.768l-.834,7.979v.021c0,1.164.922,2.245,1.735,3.2.145.17.286.335.424.5l3.637,3.9.83,1,.018.019a4.817,4.817,0,0,0,.534.43l4.889,3.405v6.887h9.806v-6.887l4.386-3.055,7.632-6.118a4.592,4.592,0,0,0,1.395-1.917l2.608-6.812a6.572,6.572,0,0,0,.4-2.917A1.765,1.765,0,0,0,101.118,153.336ZM100,155.516a4.482,4.482,0,0,1-.289,1.4l-2.608,6.812a2.477,2.477,0,0,1-.756,1.039l-3.667,2.964c-.006-.1-.015-.2-.027-.3l-.261-2.181,2.616-1.369a4.56,4.56,0,0,0,2.086-2.265l2.126-5.022A3.021,3.021,0,0,1,100,155.516Zm-24.167-15.9v33.4l-3.65-2.544-.045-.032a2.944,2.944,0,0,1-1.245-2.769l3.052-25.646A2.94,2.94,0,0,1,75.835,139.621Zm2.086,40.745V132.586h5.633v47.779Zm7.72-40.745a2.934,2.934,0,0,1,1.888,2.411l3.053,25.647a2.938,2.938,0,0,1-1.243,2.768l-3.7,2.576ZM66.687,155.14v-.022c0-.167.289-.391.618-.547v7.4a1.592,1.592,0,0,0,.466,1.128l1.281,1.278-.03,1.383-.115.971-1.385-1.266c-.15-.183-.332-.373-.525-.574-.533-.556-1.137-1.185-1.144-1.776Z" transform="translate(-22.386)" fill="#0e95ff"/>
  </g>
</svg>
