<svg xmlns="http://www.w3.org/2000/svg" width="34" height="34" viewBox="0 0 34 34">
  <g id="Group_311" data-name="Group 311" transform="translate(10 10)">
    <g id="Ellipse_39" data-name="Ellipse 39" transform="translate(-10 -10)" fill="none" stroke="#dedede" stroke-width="2">
      <circle cx="17" cy="17" r="17" stroke="none"/>
      <circle cx="17" cy="17" r="16" fill="none"/>
    </g>
    <g id="Path_162" data-name="Path 162" transform="translate(0 0)" fill="none" stroke-linecap="round">
      <path d="M6.2,0A6.2,6.2,0,1,1,0,6.2,6.2,6.2,0,0,1,6.2,0Z" stroke="none"/>
      <path d="M 6.200663089752197 1.999999046325684 C 3.88441276550293 1.999999046325684 2.000002861022949 3.884419441223145 2.000002861022949 6.200689315795898 C 2.000002861022949 8.516959190368652 3.88441276550293 10.40137958526611 6.200663089752197 10.40137958526611 C 8.516913414001465 10.40137958526611 10.40132331848145 8.516959190368652 10.40132331848145 6.200689315795898 C 10.40132331848145 3.884419441223145 8.516913414001465 1.999999046325684 6.200663089752197 1.999999046325684 M 6.200663089752197 -9.5367431640625e-07 C 9.625192642211914 -9.5367431640625e-07 12.40132331848145 2.776139259338379 12.40132331848145 6.200689315795898 C 12.40132331848145 9.625239372253418 9.625192642211914 12.40137958526611 6.200663089752197 12.40137958526611 C 2.77613353729248 12.40137958526611 2.86102294921875e-06 9.625239372253418 2.86102294921875e-06 6.200689315795898 C 2.86102294921875e-06 2.776139259338379 2.77613353729248 -9.5367431640625e-07 6.200663089752197 -9.5367431640625e-07 Z" fill="#000" stroke="none" />
    </g>
    <path id="Path_161" data-name="Path 161" d="M0,0,3.875,3.1" transform="translate(10.076 10.851)" fill="none" stroke="#000" stroke-linecap="round" stroke-width="2"/>
  </g>
</svg>
