<svg xmlns="http://www.w3.org/2000/svg" width="34" height="34" viewBox="0 0 34 34">
  <g id="user_ic" transform="translate(-1431 -35)">
    <g id="Group_323" data-name="Group 323" transform="translate(27 -1)">
      <g id="Ellipse_39" data-name="Ellipse 39" transform="translate(1404 36)" fill="none" stroke="#dedede" stroke-width="2">
        <circle cx="17" cy="17" r="17" stroke="none"/>
        <circle cx="17" cy="17" r="16" fill="none"/>
      </g>
    </g>
    <g id="Group_325" data-name="Group 325" transform="translate(1442 45)">
      <g id="Group_393" data-name="Group 393">
        <path id="Path_160" data-name="Path 160" d="M12.4,0A6.2,6.2,0,1,1,0,0" transform="translate(11.901 14.86) rotate(180)" fill="none" stroke="#000" stroke-linecap="round" stroke-width="2"/>
        <g id="Path_163" data-name="Path 163" transform="translate(3)" fill="none">
          <path d="M3.1,0A3.1,3.1,0,1,1,0,3.1,3.1,3.1,0,0,1,3.1,0Z" stroke="none"/>
          <path d="M 3.100331544876099 2.000004768371582 C 2.493611574172974 2.000004768371582 2.000001430511475 2.493614673614502 2.000001430511475 3.100344657897949 C 2.000001430511475 3.707074642181396 2.493611574172974 4.200684547424316 3.100331544876099 4.200684547424316 C 3.707051515579224 4.200684547424316 4.200661659240723 3.707074642181396 4.200661659240723 3.100344657897949 C 4.200661659240723 2.493614673614502 3.707051515579224 2.000004768371582 3.100331544876099 2.000004768371582 M 3.100331544876099 4.76837158203125e-06 C 4.812601566314697 4.76837158203125e-06 6.200661659240723 1.38807487487793 6.200661659240723 3.100344657897949 C 6.200661659240723 4.812614440917969 4.812601566314697 6.200684547424316 3.100331544876099 6.200684547424316 C 1.3880615234375 6.200684547424316 1.430511474609375e-06 4.812614440917969 1.430511474609375e-06 3.100344657897949 C 1.430511474609375e-06 1.38807487487793 1.3880615234375 4.76837158203125e-06 3.100331544876099 4.76837158203125e-06 Z" stroke="none"/>
        </g>
      </g>
    </g>
  </g>
</svg>
